arm26_states
version=1
nRows=38
nColumns=17
inDegrees=yes

# SIMM Motion File Header:
name arm26_states
datacolumns 17
datarows 38
otherdata 1
range 0.00000000 0.25685646
endheader
time	/jointset/r_shoulder/r_shoulder_elev/value	/jointset/r_shoulder/r_shoulder_elev/speed	/jointset/r_elbow/r_elbow_flex/value	/jointset/r_elbow/r_elbow_flex/speed	/forceset/TRIlong/activation	/forceset/TRIlong/fiber_length	/forceset/TRIlat/activation	/forceset/TRIlat/fiber_length	/forceset/TRImed/activation	/forceset/TRImed/fiber_length	/forceset/BIClong/activation	/forceset/BIClong/fiber_length	/forceset/BICshort/activation	/forceset/BICshort/fiber_length	/forceset/BRA/activation	/forceset/BRA/fiber_length
      0.00000000	     -0.98004159	      0.00000000	      0.00000000	      0.00000000	      0.05000000	      0.13555635	      0.05000000	      0.07016733	      0.05000000	      0.06525919	      0.05000000	      0.14401408	      0.05000000	      0.14274061	      0.05000000	      0.09329831
      0.00538755	     -0.98004159	      0.00000000	      0.00336687	      1.24561123	      0.04703034	      0.13556340	      0.04703034	      0.07017314	      0.04703034	      0.06526492	      0.04703034	      0.14402228	      0.04703034	      0.14275047	      0.04703034	      0.09330203
      0.01077510	     -0.98004159	     -0.00000000	      0.01334613	      2.45081317	      0.04430088	      0.13558278	      0.04430088	      0.07018849	      0.04430088	      0.06527976	      0.04430088	      0.14404621	      0.04430088	      0.14278126	      0.04430088	      0.09330975
      0.01834951	     -0.98004159	     -0.00000000	      0.03813153	      4.08745585	      0.04082761	      0.13562508	      0.04082761	      0.07022061	      0.04082761	      0.06531020	      0.04082761	      0.14408522	      0.04082761	      0.14283552	      0.04082761	      0.09332108
      0.02902556	     -0.98004159	     -0.00000000	      0.09409686	      6.41026478	      0.03656226	      0.13570201	      0.03656226	      0.07027735	      0.03656226	      0.06536331	      0.03656226	      0.14413374	      0.03656226	      0.14290901	      0.03656226	      0.09333215
      0.03970162	     -0.98004159	     -0.00000000	      0.17541858	      8.84565619	      0.03292323	      0.13578883	      0.03292323	      0.07034178	      0.03292323	      0.06542362	      0.03292323	      0.14417182	      0.03292323	      0.14297211	      0.03292323	      0.09333504
      0.04681640	     -0.98004159	     -0.00000000	      0.24436224	     10.54641639	      0.03079517	      0.13584984	      0.03079517	      0.07038814	      0.03079517	      0.06546726	      0.03079517	      0.14419126	      0.03079517	      0.14300775	      0.03079517	      0.09333116
      0.05393118	     -0.98004159	     -0.00000000	      0.32564714	     12.31387300	      0.02887485	      0.13591293	      0.02887485	      0.07043722	      0.02887485	      0.06551372	      0.02887485	      0.14420652	      0.02887485	      0.14303815	      0.02887485	      0.09332261
      0.06646966	     -0.98004159	     -0.00000000	      0.50025620	     15.56208122	      0.02593050	      0.13602924	      0.02593050	      0.07053090	      0.02593050	      0.06560303	      0.02593050	      0.14422379	      0.02593050	      0.14307931	      0.02593050	      0.09329711
      0.07408255	     -0.98004159	     -0.00000000	      0.62644301	     17.59456783	      0.02438084	      0.13610355	      0.02438084	      0.07059293	      0.02438084	      0.06566264	      0.02438084	      0.14422873	      0.02438084	      0.14309751	      0.02438084	      0.09327568
      0.08169544	     -0.98004159	     -0.00000000	      0.76821018	     19.65281354	      0.02298737	      0.13618086	      0.02298737	      0.07065896	      0.02298737	      0.06572635	      0.02298737	      0.14422952	      0.02298737	      0.14311068	      0.02298737	      0.09324909
      0.09079275	     -0.98004159	     -0.00000000	      0.95826354	     22.13222871	      0.02150380	      0.13627756	      0.02150380	      0.07074345	      0.02150380	      0.06580822	      0.02150380	      0.14422345	      0.02150380	      0.14312022	      0.02150380	      0.09321107
      0.09989006	     -0.98004159	     -0.00000000	      1.17091024	     24.61705300	      0.02019455	      0.13637932	      0.02019455	      0.07083435	      0.02019455	      0.06589667	      0.02019455	      0.14421039	      0.02019455	      0.14312345	      0.02019455	      0.09316625
      0.10898737	     -0.98004159	     -0.00000000	      1.40612360	     27.09104743	      0.01903810	      0.13648644	      0.01903810	      0.07093188	      0.01903810	      0.06599189	      0.01903810	      0.14419108	      0.01903810	      0.14311871	      0.01903810	      0.09311476
      0.11808469	     -0.98004159	     -0.00000000	      1.66374254	     29.54062461	      0.01801581	      0.13659919	      0.01801581	      0.07103623	      0.01801581	      0.06609405	      0.01801581	      0.14416574	      0.01801581	      0.14310533	      0.01801581	      0.09305673
      0.12718200	     -0.98004159	     -0.00000000	      1.94348380	     31.95245208	      0.01711148	      0.13671779	      0.01711148	      0.07114752	      0.01711148	      0.06620328	      0.01711148	      0.14413448	      0.01711148	      0.14308444	      0.01711148	      0.09299238
      0.13627931	     -0.98004159	     -0.00000000	      2.24494252	     34.31244441	      0.01631101	      0.13684238	      0.01631101	      0.07126584	      0.01631101	      0.06631964	      0.01631101	      0.14409743	      0.01631101	      0.14305643	      0.01631101	      0.09292171
      0.14283286	     -0.98004159	     -0.00000000	      2.47527333	     35.97400343	      0.01579174	      0.13693594	      0.01579174	      0.07135552	      0.01579174	      0.06640798	      0.01579174	      0.14406715	      0.01579174	      0.14303195	      0.01579174	      0.09286744
      0.14938641	     -0.98004159	     -0.00000000	      2.71637033	     37.59669027	      0.01531584	      0.13703267	      0.01531584	      0.07144881	      0.01531584	      0.06649995	      0.01531584	      0.14403398	      0.01531584	      0.14300396	      0.01531584	      0.09280977
      0.15619895	     -0.98004159	     -0.00000000	      2.97812066	     39.23954153	      0.01486312	      0.13713661	      0.01486312	      0.07154963	      0.01486312	      0.06659946	      0.01486312	      0.14399644	      0.01486312	      0.14297119	      0.01486312	      0.09274720
      0.16301149	     -0.98004159	     -0.00000000	      3.25089112	     40.83007006	      0.01444945	      0.13724401	      0.01444945	      0.07165436	      0.01444945	      0.06670291	      0.01444945	      0.14395581	      0.01444945	      0.14293476	      0.01444945	      0.09268104
      0.16903988	     -0.98004159	     -0.00000000	      3.50116007	     42.19320754	      0.01411319	      0.13734191	      0.01411319	      0.07175026	      0.01411319	      0.06679773	      0.01411319	      0.14391729	      0.01411319	      0.14289951	      0.01411319	      0.09262088
      0.17506828	     -0.98004159	     -0.00000000	      3.75950502	     43.50778394	      0.01380261	      0.13744245	      0.01380261	      0.07184911	      0.01380261	      0.06689551	      0.01380261	      0.14387641	      0.01380261	      0.14286149	      0.01380261	      0.09255767
      0.18109667	     -0.98004159	     -0.00000000	      4.02562942	     44.77488159	      0.01351572	      0.13754562	      0.01351572	      0.07195088	      0.01351572	      0.06699623	      0.01351572	      0.14383320	      0.01351572	      0.14282073	      0.01351572	      0.09249331
      0.18712506	     -0.98004159	     -0.00000000	      4.29923317	     45.98721428	      0.01325068	      0.13765134	      0.01325068	      0.07205548	      0.01325068	      0.06709982	      0.01325068	      0.14378768	      0.01325068	      0.14277730	      0.01325068	      0.09242593
      0.19253535	     -0.98004159	     -0.00000000	      4.55087883	     47.03066307	      0.01303003	      0.13774837	      0.01303003	      0.07215173	      0.01303003	      0.06719518	      0.01303003	      0.14374486	      0.01303003	      0.14273607	      0.01303003	      0.09236496
      0.19794564	     -0.98004159	     -0.00000000	      4.80804219	     48.02571059	      0.01282447	      0.13784735	      0.01282447	      0.07225014	      0.01282447	      0.06729270	      0.01282447	      0.14370025	      0.01282447	      0.14269276	      0.01282447	      0.09230158
      0.20445524	     -0.98004159	     -0.00000000	      5.12440042	     49.16148148	      0.01259568	      0.13796897	      0.01259568	      0.07237128	      0.01259568	      0.06741280	      0.01259568	      0.14364425	      0.01259568	      0.14263795	      0.01259568	      0.09222470
      0.20935575	     -0.98004159	     -0.00000000	      5.36730597	     49.96598535	      0.01243584	      0.13806230	      0.01243584	      0.07246448	      0.01243584	      0.06750525	      0.01243584	      0.14360035	      0.01243584	      0.14259477	      0.01243584	      0.09216441
      0.21425626	     -0.98004159	     -0.00000000	      5.61405463	     50.73028289	      0.01228591	      0.13815707	      0.01228591	      0.07255922	      0.01228591	      0.06759922	      0.01228591	      0.14355507	      0.01228591	      0.14254998	      0.01228591	      0.09210421
      0.22015910	     -0.98004159	     -0.00000000	      5.91608156	     51.59154692	      0.01211759	      0.13827306	      0.01211759	      0.07267532	      0.01211759	      0.06771442	      0.01211759	      0.14349873	      0.01211759	      0.14249396	      0.01211759	      0.09202973
      0.22545682	     -0.98004159	     -0.00000000	      6.19132511	     52.31028262	      0.01197716	      0.13837880	      0.01197716	      0.07278136	      0.01197716	      0.06781969	      0.01197716	      0.14344644	      0.01197716	      0.14244178	      0.01197716	      0.09196259
      0.23075455	     -0.98004159	     -0.00000000	      6.47023273	     52.97374159	      0.01184610	      0.13848600	      0.01184610	      0.07288897	      0.01184610	      0.06792650	      0.01184610	      0.14339263	      0.01184610	      0.14238786	      0.01184610	      0.09189369
      0.23624092	     -0.98004159	     -0.00000000	      6.76262178	     53.60450611	      0.01171957	      0.13859845	      0.01171957	      0.07300199	      0.01171957	      0.06803872	      0.01171957	      0.14333533	      0.01171957	      0.14233024	      0.01171957	      0.09182241
      0.24172729	     -0.98004159	     -0.00000000	      7.05830486	     54.17295785	      0.01160174	      0.13871228	      0.01160174	      0.07311650	      0.01160174	      0.06815244	      0.01160174	      0.14327647	      0.01160174	      0.14227087	      0.01160174	      0.09174919
      0.24721366	     -0.98004159	     -0.00000000	      7.35694112	     54.68280386	      0.01149203	      0.13882737	      0.01149203	      0.07323240	      0.01149203	      0.06826757	      0.01149203	      0.14321609	      0.01149203	      0.14220980	      0.01149203	      0.09167684
      0.25203506	     -0.98004159	      0.00000000	      7.62155824	     55.07636674	      0.01140186	      0.13892946	      0.01140186	      0.07333530	      0.01140186	      0.06836979	      0.01140186	      0.14316181	      0.01140186	      0.14215478	      0.01140186	      0.09161109
      0.25685646	     -0.98004159	      0.00000000	      7.88795913	     55.42357404	      0.01131716	      0.13903235	      0.01131716	      0.07343908	      0.01131716	      0.06847290	      0.01131716	      0.14310647	      0.01131716	      0.14209855	      0.01131716	      0.09154635
